<?xml version="1.0" standalone="no"?>
<!DOCTYPE svg PUBLIC "-//W3C//DTD SVG 20010904//EN"
 "http://www.w3.org/TR/2001/REC-SVG-20010904/DTD/svg10.dtd">
<svg version="1.0" xmlns="http://www.w3.org/2000/svg"
 width="50.000000pt" height="50.000000pt" viewBox="0 0 50.000000 50.000000"
 preserveAspectRatio="xMidYMid meet">

<g transform="translate(0.000000,50.000000) scale(0.100000,-0.100000)"
fill="#000000" stroke="none">
<path d="M442 488 c-14 -18 -74 -139 -70 -143 12 -9 49 -25 61 -25 9 0 25 29
42 75 22 61 25 78 15 90 -15 18 -34 19 -48 3z"/>
<path d="M10 405 c-15 -18 -10 -45 13 -59 34 -22 73 27 47 59 -16 19 -44 19
-60 0z"/>
<path d="M114 379 c-10 -17 13 -36 27 -22 12 12 4 33 -11 33 -5 0 -12 -5 -16
-11z"/>
<path d="M287 323 c-17 -16 -3 -34 51 -60 31 -15 59 -28 62 -29 3 0 18 -7 33
-14 24 -12 30 -12 37 0 15 25 -6 55 -60 83 -50 25 -108 35 -123 20z"/>
<path d="M77 302 c-33 -36 -8 -92 40 -92 25 0 53 30 53 57 0 46 -62 69 -93 35z"/>
<path d="M255 270 c-3 -5 0 -12 7 -17 28 -17 54 -32 88 -48 19 -9 43 -21 52
-26 23 -12 55 -12 62 0 3 5 -6 12 -21 16 -15 3 -62 24 -105 45 -42 22 -80 35
-83 30z"/>
<path d="M203 211 c-19 -18 -52 -34 -87 -42 -31 -7 -56 -15 -56 -19 0 -3 13
-18 28 -33 41 -39 84 -34 139 16 13 11 26 17 30 14 10 -11 -29 -48 -70 -67
l-37 -17 40 -18 c36 -16 41 -17 64 -2 13 9 38 31 55 49 22 23 31 28 31 17 0
-9 -18 -33 -41 -54 -22 -20 -39 -38 -37 -40 2 -2 23 -7 46 -11 38 -6 44 -4 73
27 27 29 69 98 69 114 0 3 -8 5 -18 5 -9 0 -58 20 -107 45 -50 25 -90 45 -90
45 0 -1 -14 -14 -32 -29z"/>
</g>
</svg>
